# xmcd CD database file
#
# Track frame offsets:
#	150
#	20117
#	39272
#	73580
#	91240
#	110625
#	128342
#	146005
#	167082
#	186132
#	207885
#	233957
#	250922
#	266700
#	284392
#	300477
#
# Disc length: 4249 seconds
#
# Revision: 2
# Processed by: cddbd v1.5.2PL0 Copyright (c) Steve Scherf et al.
# Submitted via: CDex 1.51
#
DISCID=e2109710
DTITLE=ºÏ¼¯ - Voyage
DYEAR=2000
DGENRE=New Age
TTITLE0=Orinoco Flow - Enya
TTITLE1=Sadness - Enigma
TTITLE2=Matsuri - Kitaro
TTITLE3=Sweet Lullaby - Deep Forest
TTITLE4=In Existence - Beautiful World
TTITLE5=You Won't See Me Cry - B-Tribe
TTITLE6=Sentinel - Mike Oldfield
TTITLE7=Moments In Love - Art of Noise
TTITLE8=Falling (Twin Peaks Theme) - Julee Cruise
TTITLE9=Conquest of Paradise - Vangelis
TTITLE10=Sister Drum - Dadawa
TTITLE11=Hong Ding Love Song - Middle Kingdom (Noel Quinlan)
TTITLE12=Im Nin' Alu - Ofra Haza
TTITLE13=Sunchyme - Dario G
TTITLE14=Chant Of The Magic Flute - Rashni Punjaai
TTITLE15=Children - Robert Miles
EXTD=YEAR: 2000
EXTT0=
EXTT1=
EXTT2=
EXTT3=
EXTT4=
EXTT5=
EXTT6=
EXTT7=
EXTT8=
EXTT9=
EXTT10=
EXTT11=
EXTT12=
EXTT13=
EXTT14=
EXTT15=
PLAYORDER=
